<svg width="32" height="32" viewBox="0 0 32 32" fill="none" xmlns="http://www.w3.org/2000/svg">
<g id="Component 1">
<path id="XMLID_894_" d="M13 17H18.004V13H7.542L9.058 9.606C9.217 9.238 9.578 9 9.978 9H16.148C15.955 7.989 15.952 7.032 16.152 6H9.978C8.376 6 6.933 6.952 6.302 8.424L4.134 13.484C2.871 14.157 2 15.472 2 17V19C2 20.474 2.81 21.75 4 22.444V26C4 27.103 4.897 28 6 28H9C10.103 28 11 27.103 11 26V23H18.004V19H13C12.448 19 12 18.552 12 18C12 17.448 12.448 17 13 17ZM7.5 20.5C6.119 20.5 5 19.381 5 18C5 16.619 6.119 15.5 7.5 15.5C8.881 15.5 10 16.619 10 18C10 19.381 8.881 20.5 7.5 20.5Z" fill="#388FF3"/>
<path id="XMLID_948_" d="M29.9218 6.47645C29.5088 4.10945 27.5228 2.41645 26.3848 2.07145C26.1928 2.01345 26.0038 2.16545 26.0038 2.36545V7.38245C26.0038 7.76145 25.7898 8.10745 25.4508 8.27645L24.4508 8.77645C24.1688 8.91745 23.8378 8.91745 23.5568 8.77645L22.5568 8.27645C22.2178 8.10745 22.0038 7.76045 22.0038 7.38245V2.36545C22.0038 2.16445 21.8138 2.01245 21.6208 2.07145C20.4818 2.42445 18.4968 4.14345 18.0868 6.49045C17.7348 8.50645 18.4908 10.4834 19.6838 11.6775C19.8798 11.8735 20.0028 12.1264 20.0028 12.4035V26.0004C20.0028 28.2084 21.7928 29.9984 24.0008 29.9984C26.2088 29.9984 27.9988 28.2084 27.9988 26.0004L28.0018 12.4085C28.0018 12.1285 28.1288 11.8705 28.3268 11.6714C29.5278 10.4714 30.2728 8.48545 29.9218 6.47645ZM24.0088 27.4994C23.1808 27.4994 22.5088 26.8274 22.5088 25.9994C22.5088 25.1714 23.1808 24.4994 24.0088 24.4994C24.8368 24.4994 25.5088 25.1714 25.5088 25.9994C25.5088 26.8274 24.8368 27.4994 24.0088 27.4994Z" fill="#388FF3"/>
</g>
</svg>
