<svg width="32" height="32" viewBox="0 0 32 32" fill="none" xmlns="http://www.w3.org/2000/svg">
<g id="Component 1">
<path id="Vector" d="M30.4757 14.0117C30.2885 13.6999 28.4415 12.902 28.4415 12.902C28.7628 12.7361 28.9823 12.7018 28.9823 12.0156C28.9823 11.2671 28.9786 11.0176 28.4796 11.0176H26.7866C26.7798 11.0026 26.7723 10.987 26.7654 10.9714C25.6726 8.58485 25.526 7.98165 23.896 7.16949C21.7097 6.08224 17.6108 6.02734 16.0039 6.02734C14.3971 6.02734 10.2982 6.08224 8.11372 7.16949C6.48191 7.9804 6.52246 8.39771 5.24435 10.9714C5.24435 10.9783 5.23125 10.9964 5.2194 11.0176H3.52459C3.0293 11.0176 3.02556 11.2671 3.02556 12.0156C3.02556 12.7018 3.24513 12.7361 3.56638 12.902C3.56638 12.902 1.78174 13.7622 1.53223 14.0117C1.28272 14.2613 1.0332 16.0078 1.0332 19.002C1.0332 21.9962 1.28272 24.9903 1.28272 24.9903H2.02751C2.02751 25.8636 2.15601 25.9884 2.53028 25.9884H7.52051C7.89478 25.9884 8.01953 25.8636 8.01953 24.9903H23.9883C23.9883 25.8636 24.1131 25.9884 24.4874 25.9884H29.6024C29.8519 25.9884 29.9766 25.8012 29.9766 24.9903H30.7252C30.7252 24.9903 30.9747 21.9338 30.9747 19.002C30.9747 16.0702 30.6628 14.3236 30.4757 14.0117ZM7.84862 16.815C6.71259 16.9392 5.57067 17.003 4.42782 17.0059C3.15406 17.0059 3.1104 17.0876 3.02057 16.2923C2.98678 15.9283 2.99747 15.5615 3.05238 15.2001L3.09168 15.0098H3.27882C4.02736 15.0098 4.73036 15.0416 6.05776 15.4327C6.73292 15.6353 7.36793 15.9531 7.9347 16.3721C8.20667 16.5693 8.26905 16.7564 8.26905 16.7564L7.84862 16.815ZM23.266 21.3062L22.9903 21.9962H9.01758C9.01758 21.9962 9.04191 21.9581 8.70569 21.2988C8.45618 20.811 8.76807 20.4991 9.26148 20.3219C10.2171 19.9776 13.0098 19.002 16.0039 19.002C18.9981 19.002 21.8463 19.8429 22.772 20.3219C23.115 20.4991 23.5411 20.6238 23.266 21.31V21.3062ZM7.23482 12.7898C7.03333 12.8014 6.83142 12.8029 6.62975 12.7941C6.79255 12.5047 6.883 12.1822 7.04207 11.8454C7.54109 10.7849 8.11185 9.58477 9.12799 9.07888C10.5964 8.34781 13.6398 8.01845 16.0039 8.01845C18.3681 8.01845 21.4115 8.34532 22.8799 9.07888C23.896 9.58477 24.4643 10.7856 24.9658 11.8454C25.1261 12.1853 25.2153 12.5103 25.3825 12.8016C25.2577 12.8085 25.1143 12.8016 24.7718 12.7898H7.23482ZM28.925 16.2898C28.7915 17.0683 28.9162 17.0059 27.5801 17.0059C26.4372 17.003 25.2954 16.9392 24.1593 16.815C23.9815 16.7832 23.931 16.4832 24.0732 16.3721C24.6371 15.9485 25.273 15.6302 25.9501 15.4327C27.2775 15.0416 28.0248 14.9892 28.7628 15.0154C28.8124 15.0173 28.8595 15.0375 28.8951 15.072C28.9306 15.1065 28.9522 15.1531 28.9555 15.2025C28.9908 15.5656 28.9805 15.9317 28.925 16.2923V16.2898Z" fill="#388FF3"/>
</g>
</svg>
