<svg width="30" height="32" viewBox="0 0 30 32" fill="none" xmlns="http://www.w3.org/2000/svg">
<g id="Group">
<path id="Vector" d="M29.8694 5.10669C28.9873 3.58244 27.7196 2.30406 26.2035 1.40981C24.6399 0.4875 22.8491 0 21.0246 0C19.2002 0 17.4092 0.4875 15.8457 1.40981C14.3296 2.30412 13.0619 3.5825 12.1798 5.10669C11.9997 5.41788 12.0134 5.8045 12.2151 6.10213L16.247 12.0536C16.2704 12.0519 16.2937 12.05 16.3176 12.05H19.2217L18.6289 10.2714C18.4652 9.78025 18.7307 9.24931 19.2219 9.08556C19.7131 8.92194 20.244 9.18738 20.4077 9.6785L21.0246 11.5292L21.6415 9.6785C21.8052 9.18731 22.3361 8.92181 22.8274 9.08556C23.3186 9.24931 23.584 9.78019 23.4203 10.2714L22.8275 12.05H25.7317C25.7556 12.05 25.7789 12.0518 25.8023 12.0536L29.8342 6.10213C30.0357 5.8045 30.0494 5.41788 29.8694 5.10669Z" fill="#388FF3"/>
<path id="Vector_2" d="M17.0752 30.0592C17.0752 31.1298 17.9462 32.0008 19.0168 32.0008H23.0336C24.1042 32.0008 24.9752 31.1298 24.9752 30.0592V13.9258H17.0752V30.0592Z" fill="#388FF3"/>
<path id="Vector_3" d="M1.00781 11.916H9.912V21.0868H1.00781V11.916Z" fill="#388FF3"/>
<path id="Vector_4" d="M0.00390625 30.0588C0.00390625 31.1294 0.874906 32.0004 1.94553 32.0004H8.97478C10.0454 32.0004 10.9164 31.1294 10.9164 30.0588V22.9629H0.00390625V30.0588Z" fill="#388FF3"/>
<path id="Vector_5" d="M8.90857 1.94208C8.90857 1.0097 8.24326 0.306641 7.36107 0.306641C7.13801 0.306641 6.91238 0.351641 6.69057 0.440453L3.53438 1.70289C2.66688 2.04989 2.0127 3.01614 2.0127 3.95045V10.0421H8.90857V1.94208Z" fill="#388FF3"/>
</g>
</svg>
