<svg width="32" height="32" viewBox="0 0 32 32" fill="none" xmlns="http://www.w3.org/2000/svg">
<path d="M28.5314 17.1428H28.1127C26.2505 17.1428 24.4329 16.5404 22.9409 15.438L20.6119 17.7671L19.2854 16.4406L21.4824 14.2435L20.3859 13.331L17.963 15.7539L16.6365 14.4274L18.938 12.1259L17.8414 11.2133L15.3141 13.7407L13.9876 12.4142L16.3936 10.0082L14.263 8.23492C13.9947 8.01161 13.6548 7.88867 13.3057 7.88867C12.4806 7.88867 11.8093 8.55992 11.8093 9.38505V10.1997C11.8093 12.8857 9.62406 15.071 6.93806 15.071C5.05275 15.071 3.31975 13.9669 2.52306 12.2581L2.29375 11.7664C2.09694 11.3442 1.66887 11.0714 1.20312 11.0714C0.53975 11.0714 0 11.6112 0 12.2747V20.2954H32C31.8321 18.5292 30.3408 17.1428 28.5314 17.1428Z" fill="#388FF3"/>
<path d="M0.361328 22.1699C0.931641 23.319 2.11702 24.1112 3.48452 24.1112H28.531C29.8985 24.1112 31.084 23.3191 31.6542 22.1699H0.361328Z" fill="#388FF3"/>
</svg>
