<svg width="32" height="32" viewBox="0 0 32 32" fill="none" xmlns="http://www.w3.org/2000/svg">
<g id="Component 1" clip-path="url(#clip0_6258_6162)">
<path id="Vector" d="M31.0618 31.281C30.1458 30.5791 29.1548 29.9807 28.1069 29.4971L24.3611 27.7676C24.1758 28.2957 23.6914 29.4773 22.7341 30.6655C22.3296 31.1677 21.8882 31.6128 21.4141 32.0002H32.0002L31.0618 31.281Z" fill="#388FF3"/>
<path id="Vector_2" d="M9.26611 30.6655C8.30884 29.4773 7.82446 28.2957 7.63916 27.7676L3.89331 29.4971C2.84546 29.9807 1.85449 30.5791 0.938477 31.281L0 32.0002H10.5862C10.1123 31.6128 9.67065 31.168 9.26611 30.6655Z" fill="#388FF3"/>
<path id="Vector_3" d="M22.103 26.1255V25.9121C20.4509 27.301 18.3215 28.1389 16 28.1389C13.6785 28.1389 11.5491 27.301 9.89722 25.9121V26.1255C9.89722 26.4902 9.68335 26.8245 9.35254 26.9771C9.35254 26.9771 10.7993 32.0007 16.0002 32.0007C21.2009 32.0007 22.6477 26.9771 22.6477 26.9771C22.3167 26.8245 22.103 26.4902 22.103 26.1255Z" fill="#388FF3"/>
<path id="Vector_4" d="M16 26.2629C20.2046 26.2629 23.625 22.8411 23.625 18.6348V15.2578H8.375V18.6348C8.375 22.8411 11.7957 26.2629 16 26.2629Z" fill="#388FF3"/>
<path id="Vector_5" d="M6.39771 13.3818H25.6028C26.1206 13.3818 26.5403 12.9619 26.5403 12.4441C26.5403 11.926 26.1206 11.5061 25.6028 11.5061H24.8152V10.5364C24.8152 7.51343 23.2869 4.84155 20.9629 3.25195V7.20923C20.9629 7.72729 20.5432 8.14722 20.0254 8.14722C19.5078 8.14722 19.0879 7.72729 19.0879 7.20923V2.65552C19.0879 2.53076 19.1128 2.41162 19.1572 2.30273C18.4558 2.03271 17.7117 1.84985 16.9377 1.76758V8.35962C16.9377 8.87769 16.5178 9.29761 16.0002 9.29761C15.4824 9.29761 15.0627 8.87769 15.0627 8.35962V1.76758C14.2888 1.84961 13.5449 2.03271 12.8438 2.30249C12.8879 2.41162 12.9128 2.53052 12.9128 2.65552V7.20923C12.9128 7.72729 12.4932 8.14722 11.9753 8.14722C11.4575 8.14722 11.0378 7.72729 11.0378 7.20923V3.25146C8.71362 4.84106 7.18506 7.51343 7.18506 10.5364V11.5061H6.39746C5.87988 11.5061 5.45996 11.926 5.45996 12.4441C5.45996 12.9619 5.87988 13.3818 6.39771 13.3818Z" fill="#388FF3"/>
<path id="Vector_6" d="M20.9629 2.65479C20.9629 2.13672 20.5432 1.7168 20.0254 1.7168C19.6326 1.7168 19.2964 1.95898 19.1572 2.30225C19.7983 2.54907 20.4038 2.86865 20.9629 3.25122V2.65479Z" fill="#388FF3"/>
<path id="Vector_7" d="M11.9756 1.7168C11.4578 1.7168 11.0381 2.13672 11.0381 2.65479V3.25073C11.5972 2.86816 12.2026 2.54858 12.8438 2.30176C12.7043 1.95898 12.3684 1.7168 11.9756 1.7168Z" fill="#388FF3"/>
<path id="Vector_8" d="M16.9375 1.76685V0.937988C16.9375 0.419922 16.5178 0 16 0C15.4822 0 15.0625 0.419922 15.0625 0.937988V1.76685C15.3706 1.73389 15.6833 1.7168 16 1.7168C16.3167 1.7168 16.6294 1.73389 16.9375 1.76685Z" fill="#388FF3"/>
</g>
<defs>
<clipPath id="clip0_6258_6162">
<rect width="32" height="32" fill="white"/>
</clipPath>
</defs>
</svg>
