<svg width="32" height="32" viewBox="0 0 32 32" fill="none" xmlns="http://www.w3.org/2000/svg">
<g id="Component 1" clip-path="url(#clip0_6258_1854)">
<path id="Vector" d="M7.13867 0.0078125L0 7.14648L5.1521 12.2986L7.54468 9.90576L8.87012 11.2312L6.47754 13.6238L7.79492 14.9414L14.9336 7.80273L7.13867 0.0078125ZM7.65259 7.65991C7.448 7.8645 7.17603 7.97729 6.88696 7.97729C6.5979 7.97729 6.32617 7.86475 6.12158 7.6604C5.69946 7.23804 5.69946 6.55127 6.12158 6.12939C6.32617 5.9248 6.5979 5.81226 6.88696 5.81226C7.17603 5.81226 7.448 5.9248 7.65234 6.12915C8.07446 6.55127 8.07446 7.23779 7.65259 7.65991Z" fill="#388FF3"/>
<path id="Vector_2" d="M17.0518 24.1973L18.3813 25.5269L20.78 23.1282L22.1055 24.4536L19.7068 26.8523L21.0239 28.1694L23.4226 25.7708L24.748 27.0962L22.3494 29.4949L24.8538 31.9993L31.9924 24.8606L24.1907 17.0586L17.0518 24.1973Z" fill="#388FF3"/>
<path id="Vector_3" d="M31.9968 0L21.9512 3.89648L28.1006 10.0457L31.9968 0Z" fill="#388FF3"/>
<path id="Vector_4" d="M2.37646 23.0098L0.858887 24.5271C0.311524 25.0747 0.00976562 25.8027 0.00976562 26.5771C0.00976562 27.3516 0.311524 28.0793 0.858887 28.6272L3.36938 31.1377C3.91699 31.6853 4.64502 31.9868 5.41943 31.9868C6.19385 31.9868 6.92188 31.6853 7.46948 31.1377L8.98682 29.6204L2.37646 23.0098Z" fill="#388FF3"/>
<path id="Vector_5" d="M23.0376 7.63306L20.395 4.99023L3.70215 21.6831L6.34497 24.3257L23.0376 7.63306Z" fill="#388FF3"/>
<path id="Vector_6" d="M23.793 14.814L27.0054 11.6016L24.3628 8.95898L7.66992 25.6519L10.3125 28.2944L23.793 14.814Z" fill="#388FF3"/>
</g>
<defs>
<clipPath id="clip0_6258_1854">
<rect width="32" height="32" fill="white"/>
</clipPath>
</defs>
</svg>
