<svg width="30" height="32" viewBox="0 0 30 32" fill="none" xmlns="http://www.w3.org/2000/svg">
<g id="Group">
<g id="Layer_14">
<g id="Group_2">
<path id="Vector" d="M9.58936 2.40625C9.33803 2.50798 9.11068 2.6516 8.90723 2.83107C9.05683 4.04573 9.66117 5.16464 10.5886 5.90661C10.6484 5.95449 10.7322 5.98441 10.81 5.98441C11.0075 5.98441 11.169 5.82284 11.163 5.61943C11.163 5.51172 11.1151 5.41597 11.0373 5.35015C10.1757 4.65605 9.64321 3.56705 9.58936 2.40625Z" fill="#388FF3"/>
<path id="Vector_2" d="M12.8447 8.60352H17.3204V9.44123H12.8447V8.60352Z" fill="#388FF3"/>
<path id="Vector_3" d="M12.2344 0.382812H13.4371V1.14872H12.2344V0.382812Z" fill="#388FF3"/>
<path id="Vector_4" d="M2.88856 3.72776H7.4839C7.90872 2.40538 9.12936 1.51386 10.5176 1.50788H11.5168V0.0239363V0H4.65969C3.29542 0 2.18848 1.10695 2.18848 2.47121V3.72776H2.88856Z" fill="#388FF3"/>
<path id="Vector_5" d="M17.8173 7.88676V4.9668H12.3604V7.88676H12.486H17.6797H17.8173Z" fill="#388FF3"/>
<path id="Vector_6" d="M26.5356 19.8411C26.3801 19.6915 25.68 19.4043 24.4534 19.4043C23.2268 19.4043 22.5267 19.6915 22.3711 19.8411C22.5267 19.9907 23.2268 20.2779 24.4534 20.2779C25.68 20.2779 26.3801 19.9907 26.5356 19.8411Z" fill="#388FF3"/>
<path id="Vector_7" d="M11.5043 27.0933H18.5289V20.0147C18.5289 19.9788 18.5289 19.9429 18.5349 19.907C18.0622 19.2249 17.3322 18.2616 16.2193 16.8913C14.849 15.2159 13.4669 13.6363 13.0719 13.1875C11.4564 13.2713 10.1819 14.5996 10.1699 16.2212C10.2178 16.5802 10.6665 20.2062 10.6665 21.4867C10.6665 22.5278 10.2238 25.4418 10.1699 25.7829C10.1819 26.5129 10.7743 27.0933 11.5043 27.0933Z" fill="#388FF3"/>
<path id="Vector_8" d="M3.19898 4.44531L2.50488 9.81255H7.23187L6.53778 4.44531H5.95139V8.90906C5.95139 9.10653 5.78982 9.26805 5.5924 9.26805C5.39498 9.26805 5.23341 9.10648 5.23341 8.90906V4.44531H4.38971V8.90906C4.38971 9.10653 4.22814 9.26805 4.03071 9.26805C3.83324 9.26805 3.67172 9.10648 3.67172 8.90906V4.44531H3.19898Z" fill="#388FF3"/>
<path id="Vector_9" d="M20.6472 18.7942C20.019 19.0455 19.5702 19.3507 19.3668 19.6558C19.3548 19.6738 19.3428 19.6917 19.3368 19.7097C19.3308 19.7097 19.3308 19.7097 19.3308 19.7157C19.3249 19.7336 19.3129 19.7456 19.3069 19.7636H19.3009L19.283 19.8174H19.277L19.259 19.8772V19.8892C19.2531 19.9012 19.2531 19.9191 19.2531 19.9311C19.2531 19.9371 19.2471 19.9431 19.2471 19.9491V20.0029C19.2531 20.1346 19.2949 20.2542 19.3668 20.3619C19.5702 20.6671 20.019 20.9722 20.6472 21.2236C20.8866 21.3133 21.1319 21.3971 21.3772 21.4629C21.6046 21.5228 21.838 21.5826 22.0893 21.6245C22.8672 21.7741 23.657 21.8459 24.4528 21.8399C25.4939 21.8399 26.4872 21.7262 27.3368 21.5108L29.4132 20.5176C29.461 20.4697 29.5029 20.4159 29.5388 20.362C29.7004 20.1466 29.7004 19.8594 29.5388 19.644C29.3354 19.3388 28.8866 19.0337 28.2583 18.7823C27.2471 18.3814 25.8948 18.166 24.4528 18.166C23.7527 18.166 23.0526 18.2199 22.3585 18.3276C22.1012 18.3695 21.8559 18.4233 21.6225 18.4772C21.2875 18.5608 20.9644 18.6625 20.6472 18.7942ZM24.4528 18.6865C25.853 18.6865 27.271 19.0395 27.271 19.8413C27.271 20.6431 25.8529 20.9961 24.4528 20.9961C23.0526 20.9961 21.6346 20.6371 21.6346 19.8413C21.6346 19.0455 23.0526 18.6865 24.4528 18.6865Z" fill="#388FF3"/>
<path id="Vector_10" d="M24.4527 22.5699C23.6629 22.5699 22.8671 22.5041 22.0892 22.3724C21.8379 22.3306 21.5926 22.2767 21.3652 22.2169C20.4677 21.9895 19.7377 21.6664 19.2471 21.2715V28.8885C19.2471 29.2834 19.7198 29.7143 20.5276 30.0553L20.6472 30.1032C20.9345 30.2169 21.2336 30.3126 21.5328 30.3844C22.3047 30.5759 23.0945 30.6896 23.8903 30.7135V23.4017C23.8903 23.264 23.9681 23.1384 24.0938 23.0786L25.1948 22.552C24.9494 22.5639 24.7041 22.5699 24.4527 22.5699Z" fill="#388FF3"/>
<path id="Vector_11" d="M24.6084 23.629V32L25.9368 31.3657L29.6585 29.5826V21.2715C29.1679 21.6664 28.4439 21.9895 27.5583 22.2169L24.6084 23.629Z" fill="#388FF3"/>
<path id="Vector_12" d="M20.1151 16.6525C20.2108 16.6346 20.2827 16.5508 20.2886 16.455C20.3305 16.0362 20.3545 15.6233 20.3545 15.2164C20.3545 14.1873 20.1809 13.2239 19.5527 12.5119C18.9244 11.7999 17.961 11.4528 16.5848 11.4169C16.525 11.4109 16.4651 11.4349 16.4232 11.4768C16.3933 11.5067 16.3694 11.5426 16.3574 11.5845C16.4891 11.8538 17.1652 12.859 18.1525 14.1873C19.1397 15.5157 19.8758 16.4312 20.1151 16.6525Z" fill="#388FF3"/>
<path id="Vector_13" d="M7.29808 28.0271C7.30407 27.9852 7.99218 23.5096 7.99218 22.0436C7.99218 20.2366 7.30407 14.7377 7.29808 14.6778C7.2921 14.6659 7.2921 14.6479 7.2921 14.636C7.2921 13.8521 7.47162 13.0803 7.81266 12.3802L7.35792 10.5312H2.39157L1.80518 13.5649L0.351159 27.8356C0.291319 28.3861 0.470841 28.9366 0.8418 29.3435C1.21276 29.7564 1.73936 29.9897 2.28984 29.9897H8.06394C7.56731 29.4812 7.29204 28.793 7.29204 28.081C7.2921 28.063 7.2921 28.0451 7.29808 28.0271Z" fill="#388FF3"/>
<path id="Vector_14" d="M18.5288 28.8887V27.8116H11.5041C10.3733 27.8056 9.45775 26.8902 9.45177 25.7593C9.45177 25.7413 9.45177 25.7233 9.45775 25.7054C9.46374 25.6755 9.94839 22.5162 9.94839 21.487C9.94839 20.2125 9.45775 16.3292 9.45775 16.2873C9.45177 16.2753 9.45177 16.2574 9.45177 16.2454C9.45775 14.1631 11.1451 12.4758 13.2274 12.4698C13.3291 12.4698 13.4309 12.5117 13.4967 12.5895C13.5146 12.6074 15.1541 14.4563 16.7757 16.4369C17.7091 17.5798 18.3793 18.4534 18.864 19.1295C19.3606 18.5132 20.3718 18.0166 21.7002 17.7294C21.8617 16.1916 22.0352 14.8274 22.0591 14.6119C22.0412 12.1527 20.0546 10.1721 17.5954 10.1602H12.4795C10.852 10.1602 9.35608 11.0457 8.57222 12.4698C8.36277 12.8467 8.20724 13.2537 8.11748 13.6725C8.04567 13.9836 8.00977 14.2948 8.00977 14.6119C8.06961 15.0547 8.70985 20.2304 8.70985 22.0435C8.70985 23.5154 8.07559 27.686 8.00977 28.1108C8.02173 28.7989 8.38072 29.4391 8.96113 29.8041C9.22443 29.9717 9.51759 30.0734 9.82278 30.1092L10.0502 30.1212H19.217C18.7742 29.7562 18.5288 29.3374 18.5288 28.8887ZM15.6328 11.6082C15.6388 11.3569 15.7465 11.1176 15.9319 10.95C16.1115 10.7765 16.3508 10.6867 16.6021 10.6987C18.1877 10.7406 19.3306 11.1833 20.0845 12.039C21.1436 13.2297 21.1556 14.8991 21.0059 16.5207C20.9581 17.0054 20.5512 17.3764 20.0666 17.3764H19.9768C19.8033 17.3584 19.5879 17.3405 17.5894 14.6479C17.0868 13.9717 16.62 13.3195 16.273 12.805C15.6268 11.8415 15.6268 11.7338 15.6328 11.6082Z" fill="#388FF3"/>
</g>
</g>
</g>
</svg>
