<svg width="32" height="32" viewBox="0 0 32 32" fill="none" xmlns="http://www.w3.org/2000/svg">
<g id="Component 1" clip-path="url(#clip0_6258_6291)">
<path id="Vector" d="M31.7502 12.832C31.5244 9.50903 30.1228 6.41577 27.7451 4.03809C25.1411 1.43408 21.679 0 17.9961 0C17.4685 0 17.041 0.427734 17.041 0.955322V12.832H31.7502Z" fill="#388FF3"/>
<path id="Vector_2" d="M6.11938 12.8323V12.1121C6.11938 9.97388 4.37988 8.23438 2.2417 8.23438H1.26782C0.740234 8.23438 0.3125 8.66211 0.3125 9.1897C0.3125 9.71729 0.740234 10.1448 1.26782 10.1448H2.2417C3.32642 10.1448 4.20898 11.0273 4.20898 12.1121V12.8323H6.11938Z" fill="#388FF3"/>
<path id="Vector_3" d="M26.5815 19.772C28.114 19.772 29.5337 20.2625 30.6931 21.094C31.5208 19.77 31.9114 18.2903 31.7832 16.8779V14.7422H4.20898V16.9231C4.20898 18.2271 4.51367 19.4609 5.05469 20.5581C6.02515 20.0562 7.12598 19.772 8.29199 19.772C11.6147 19.772 14.4089 22.0767 15.1614 25.1714H19.7122C20.4646 22.0767 23.2588 19.772 26.5815 19.772Z" fill="#388FF3"/>
<path id="Vector_4" d="M8.2915 21.6836C5.44702 21.6836 3.13281 23.9976 3.13281 26.842C3.13281 29.6865 5.44702 32.0007 8.2915 32.0007C11.136 32.0007 13.4502 29.6865 13.4502 26.842C13.4502 23.9976 11.136 21.6836 8.2915 21.6836ZM8.2915 29.9358C6.58569 29.9358 5.19775 28.5481 5.19775 26.842C5.19775 25.1362 6.58569 23.7485 8.2915 23.7485C9.99731 23.7485 11.3853 25.1362 11.3853 26.842C11.3853 28.5481 9.99731 29.9358 8.2915 29.9358Z" fill="#388FF3"/>
<path id="Vector_5" d="M8.29175 25.6582C7.63916 25.6582 7.1084 26.189 7.1084 26.8413C7.1084 27.4939 7.63916 28.0247 8.29175 28.0247C8.94434 28.0247 9.4751 27.4939 9.4751 26.8413C9.4751 26.189 8.94409 25.6582 8.29175 25.6582Z" fill="#388FF3"/>
<path id="Vector_6" d="M31.7402 26.842C31.7402 23.9976 29.426 21.6836 26.5815 21.6836C23.7371 21.6836 21.4229 23.9976 21.4229 26.842C21.4229 29.6865 23.7371 32.0007 26.5815 32.0007C29.426 32.0007 31.7402 29.6865 31.7402 26.842ZM26.5815 29.9358C24.8757 29.9358 23.4878 28.5481 23.4878 26.842C23.4878 25.1362 24.8757 23.7485 26.5815 23.7485C28.2874 23.7485 29.6753 25.1362 29.6753 26.842C29.6753 28.5481 28.2874 29.9358 26.5815 29.9358Z" fill="#388FF3"/>
<path id="Vector_7" d="M26.5818 25.6582C25.9292 25.6582 25.3984 26.189 25.3984 26.8413C25.3984 27.4939 25.9292 28.0247 26.5818 28.0247C27.2344 28.0247 27.7651 27.4939 27.7651 26.8413C27.7651 26.189 27.2344 25.6582 26.5818 25.6582Z" fill="#388FF3"/>
</g>
<defs>
<clipPath id="clip0_6258_6291">
<rect width="32" height="32" fill="white"/>
</clipPath>
</defs>
</svg>
