<svg width="30" height="30" viewBox="0 0 30 30" fill="none" xmlns="http://www.w3.org/2000/svg">
<g id="Icon">
<path id="Vector" fill-rule="evenodd" clip-rule="evenodd" d="M6.95747 27.9343C8.30814 24.4409 11.7001 21.9609 15.6668 21.9609C19.6335 21.9609 23.0255 24.4409 24.3761 27.9343C24.4948 28.2409 24.4548 28.5876 24.2681 28.8596C24.0815 29.1316 23.7735 29.2943 23.4428 29.2943H7.89081C7.56147 29.2943 7.25214 29.1316 7.06547 28.8596C6.88014 28.5876 6.83881 28.2409 6.95747 27.9343Z" fill="#388FF3"/>
<path id="Vector_2" fill-rule="evenodd" clip-rule="evenodd" d="M15.976 23.1786C15.856 23.7173 15.3214 24.0573 14.7827 23.9373C14.244 23.8173 13.904 23.2826 14.024 22.744C14.024 22.744 14.936 18.6346 14.0227 14.388C13.436 11.664 12.092 8.86663 9.1627 7.15863C8.6867 6.87996 8.52537 6.26796 8.8027 5.79063C9.08137 5.31463 9.69337 5.1533 10.1707 5.43063C13.6414 7.45596 15.284 10.7386 15.9774 13.9666C16.984 18.648 15.976 23.1786 15.976 23.1786Z" fill="#388FF3"/>
<path id="Vector_3" fill-rule="evenodd" clip-rule="evenodd" d="M16.4067 17.8245C16.2974 18.3658 15.7694 18.7165 15.2294 18.6072C14.6881 18.4978 14.3374 17.9712 14.4467 17.4298C14.4467 17.4298 14.8654 15.1005 17.8974 12.2338C18.2987 11.8552 18.9321 11.8725 19.3107 12.2738C19.6907 12.6752 19.6721 13.3085 19.2721 13.6872C16.8254 16.0005 16.4067 17.8245 16.4067 17.8245Z" fill="#388FF3"/>
<path id="Vector_4" fill-rule="evenodd" clip-rule="evenodd" d="M18.0467 14.8017C17.9494 14.5404 17.6134 13.5524 17.5867 12.4071C17.5521 10.9244 18.0187 9.22575 19.8774 8.27375C23.1987 6.57508 27.2894 7.76975 29.0881 9.84175C29.3081 10.0951 29.3867 10.4391 29.2974 10.7617C29.2094 11.0844 28.9667 11.3404 28.6494 11.4471C28.6494 11.4471 27.0121 12.0431 25.8947 14.2777C25.3427 15.3804 23.9334 16.5644 22.4361 16.9737C21.6094 17.1991 20.7654 17.1951 20.0107 16.8911C19.7521 16.7871 19.5001 16.6471 19.2641 16.4671C19.6227 16.0177 20.0641 15.5311 20.6054 15.0204C21.0054 14.6417 21.0241 14.0084 20.6441 13.6071C20.2654 13.2057 19.6321 13.1884 19.2307 13.5671C18.7801 13.9924 18.3881 14.4057 18.0467 14.8017Z" fill="#388FF3"/>
<path id="Vector_5" fill-rule="evenodd" clip-rule="evenodd" d="M11.3657 12.8526C10.851 13.0832 10.355 13.1912 9.88571 13.2112C8.44437 13.2712 7.16704 12.4726 6.16171 11.3499C5.20037 10.2752 4.48971 8.92725 4.09371 8.07258C3.22437 6.20191 0.92304 3.65258 0.92304 3.65258C0.708373 3.41391 0.621706 3.08725 0.689706 2.77391C0.757706 2.46058 0.97104 2.19791 1.26437 2.06858C5.17237 0.353913 9.91771 -0.098087 13.6257 2.87125C15.3497 4.25258 15.5777 6.00991 15.2084 7.63125C14.719 9.78058 13.0844 11.6459 13.0844 11.6459C13.0724 11.6592 13.059 11.6726 13.047 11.6859C12.1057 9.50991 10.5777 7.50058 8.17104 6.09658C7.69371 5.81925 7.08171 5.98058 6.80304 6.45658C6.52571 6.93391 6.68704 7.54591 7.16304 7.82458C9.30037 9.07125 10.595 10.8979 11.3657 12.8526Z" fill="#388FF3"/>
</g>
</svg>
