<svg width="18" height="32" viewBox="0 0 18 32" fill="none" xmlns="http://www.w3.org/2000/svg">
<g id="Group">
<path id="Vector" d="M18.0035 0.96043C18.0035 0.429997 17.5735 0 17.043 0H0.956523C0.42609 0 -0.00390625 0.429997 -0.00390625 0.96043V10.6549H18.0035L18.0035 0.96043ZM4.21537 7.83657C4.21537 8.35431 3.79563 8.77406 3.27788 8.77406C2.76013 8.77406 2.34039 8.35431 2.34039 7.83657V5.44196C2.34039 4.92421 2.76013 4.50447 3.27788 4.50447C3.79563 4.50447 4.21537 4.92421 4.21537 5.44196V7.83657Z" fill="#388FF3"/>
<path id="Vector_2" d="M-0.00390625 28.9157C-0.00390625 29.4462 0.42609 29.8762 0.956523 29.8762H1.63427V31.062C1.63427 31.5797 2.05401 31.9995 2.57176 31.9995C3.08951 31.9995 3.50925 31.5797 3.50925 31.062V29.8762H14.3782V31.062C14.3782 31.5797 14.798 31.9995 15.3157 31.9995C15.8335 31.9995 16.2532 31.5797 16.2532 31.062V29.8762H17.043C17.5735 29.8762 18.0035 29.4462 18.0035 28.9157V12.5293H-0.00390625V28.9157ZM2.34039 15.3796C2.34039 14.8618 2.76013 14.4421 3.27788 14.4421C3.79563 14.4421 4.21537 14.8618 4.21537 15.3796V17.7743C4.21537 18.2921 3.79563 18.7118 3.27788 18.7118C2.76013 18.7118 2.34039 18.2921 2.34039 17.7743V15.3796Z" fill="#388FF3"/>
</g>
</svg>
