<svg width="32" height="30" viewBox="0 0 32 30" fill="none" xmlns="http://www.w3.org/2000/svg">
<g id="Group">
<path id="Vector" d="M15.9909 3.218C9.01587 -2.88266 0.14723 2.47755 0.00180337 9.74419C-0.0352563 11.5961 0.499328 13.4 1.56343 15.0631H8.46066L9.68744 13.0184C10.0437 12.4247 10.9057 12.4056 11.2821 12.9974L13.8705 17.0648L17.6435 9.09974C17.9726 8.40473 18.9532 8.38267 19.3161 9.05661L22.5503 15.0631H30.4184C36.2468 5.95379 24.7279 -4.42361 15.9909 3.218Z" fill="#388FF3"/>
<path id="Vector_2" d="M21.1646 16.4453L18.5438 11.5781L14.8377 19.4019C14.5225 20.0675 13.5951 20.1253 13.1997 19.5039L10.5143 15.284L9.79476 16.4832C9.62533 16.7655 9.32023 16.9383 8.99094 16.9383H3.0459C3.23226 17.1333 2.23902 16.1421 15.3292 29.1645C15.6948 29.5283 16.2858 29.5283 16.6515 29.1645C29.5403 16.3424 28.7488 17.133 28.9348 16.9383H21.99C21.645 16.9383 21.3281 16.749 21.1646 16.4453Z" fill="#388FF3"/>
</g>
</svg>
