<svg width="32" height="32" viewBox="0 0 32 32" fill="none" xmlns="http://www.w3.org/2000/svg">
<g id="Component 1">
<path id="Vector" d="M17.2034 2.40039H13.5019C13.06 2.40039 12.7019 2.75847 12.7019 3.20039V4.40711H10.2443C9.80242 4.40711 9.44434 4.76519 9.44434 5.20711C9.44434 5.64903 9.80242 6.00711 10.2443 6.00711H20.4607C20.9026 6.00711 21.2607 5.64903 21.2607 5.20711C21.2607 4.76519 20.9026 4.40711 20.4607 4.40711H18.0031V3.20039C18.0034 2.75847 17.6453 2.40039 17.2034 2.40039ZM16.4034 4.40711H14.3023V4.00039H16.4034V4.40711Z" fill="#388FF3"/>
<path id="Vector_2" d="M7.58108 7.1249C7.44924 7.40522 7.49084 7.7361 7.68764 7.97514L9.76316 10.4913L10.8092 20.003C10.8048 20.0097 9.5238 22.6257 9.52188 22.6302C9.48348 22.7121 9.45916 22.8065 9.44796 22.8942L8.89404 28.7243C8.87292 28.9486 8.94716 29.1713 9.09884 29.338C9.25052 29.5047 9.46556 29.5998 9.69084 29.5998H21.0153C21.2406 29.5998 21.4556 29.5047 21.6073 29.338C21.759 29.1713 21.8332 28.9486 21.8121 28.7243L21.2576 22.8939C21.2473 22.8059 21.2208 22.7092 21.1836 22.6299C21.1836 22.6299 19.8992 20.0145 19.896 20.0023L20.1776 17.4247L21.5459 16.7502C22.6416 16.2097 23.4224 15.1684 23.6339 13.9646L24.4611 9.25866C24.5744 8.61354 24.398 7.95658 23.9769 7.45514C23.5561 6.9537 22.9388 6.66602 22.2841 6.66602H20.4608H8.30492C7.99516 6.66602 7.71324 6.8449 7.58108 7.1249ZM21.1782 8.26602H22.2841C22.5315 8.26602 22.6832 8.40266 22.7516 8.48394C22.8198 8.56522 22.9283 8.73802 22.8854 8.98186L22.0582 13.6875C21.9344 14.3908 21.478 14.9995 20.838 15.3153L20.3833 15.5396L21.1782 8.26602ZM19.5686 8.26602L19.2147 11.5057C19.0915 11.4401 18.974 11.3559 18.8348 11.2548C18.423 10.9553 17.8595 10.5454 16.8342 10.5454C15.8092 10.5454 15.2454 10.9553 14.8339 11.2548C14.4883 11.506 14.2796 11.658 13.7747 11.658C13.2707 11.658 13.062 11.506 12.7164 11.2548C12.4051 11.0283 12.0057 10.739 11.3859 10.6113L11.3273 10.0791C11.31 9.92458 11.2483 9.77801 11.1491 9.65769L10.0012 8.26602H19.5686Z" fill="#388FF3"/>
</g>
</svg>
