<svg width="28" height="32" viewBox="0 0 28 32" fill="none" xmlns="http://www.w3.org/2000/svg">
<g id="Group">
<g id="Group_2">
<g id="Group_3">
<path id="Vector" d="M14.5713 12.8563C14.5713 13.6453 15.2109 14.2849 15.9999 14.2849C16.7888 14.2849 17.4284 13.6453 17.4284 12.8563C17.4284 12.0673 16.7889 11.4277 15.9999 11.4277C15.2112 11.4285 14.5722 12.0677 14.5713 12.8563Z" fill="#388FF3"/>
<path id="Vector_2" d="M18 10.8577C18.0008 11.4886 18.512 11.9998 19.1429 12.0006C19.7741 12.0006 20.2857 11.4889 20.2857 10.8577C20.2857 10.2265 19.7741 9.71484 19.1429 9.71484C18.5117 9.71484 18 10.2265 18 10.8577Z" fill="#388FF3"/>
<path id="Vector_3" d="M5.99705 6.88673C6.09242 6.86992 6.18892 6.86017 6.28567 6.85755C7.31023 6.86086 8.16592 7.63948 8.26561 8.65917C8.45805 8.60392 8.65699 8.57455 8.85711 8.5718C9.96299 8.57411 10.9085 9.36786 11.1023 10.4566C11.3888 10.346 11.6929 10.2883 12 10.286C12.7805 10.2888 13.5171 10.6479 14 11.2612C14.6811 10.3809 15.8602 10.0535 16.8977 10.4566C17.0915 9.36786 18.037 8.57411 19.1429 8.5718C19.343 8.57455 19.5419 8.60392 19.7344 8.65917C19.834 7.63942 20.6897 6.86086 21.7143 6.85755C21.8111 6.86017 21.9075 6.86992 22.0029 6.88673C22.0028 6.8768 22 6.86755 22 6.85755C22.0019 6.57398 22.0751 6.29542 22.2128 6.04755C21.5052 5.29492 20.8754 4.47298 20.3325 3.59417L20.3091 3.5593V3.55961C20.0014 3.06517 19.7646 2.62355 19.5868 2.26367C19.2698 2.47892 18.9255 2.65098 18.563 2.77542C18.5239 2.79461 18.4825 2.80905 18.4399 2.81848C17.0001 3.24898 15.5025 3.45492 13.9999 3.42905C12.4975 3.45492 11 3.24905 9.5603 2.81867C9.51698 2.80917 9.47505 2.79448 9.43524 2.77492C9.07336 2.65061 8.72961 2.47873 8.41305 2.26373C8.2353 2.62361 7.99842 3.06523 7.69073 3.55967V3.55942L7.6673 3.5943C7.12455 4.47317 6.49461 5.29511 5.78711 6.04767C5.92473 6.29561 5.99786 6.57411 5.99986 6.85767C5.99998 6.86755 5.99717 6.8768 5.99705 6.88673Z" fill="#388FF3"/>
<path id="Vector_4" d="M23.714 7.42803C24.0296 7.42803 24.2855 7.17222 24.2855 6.85659C24.2851 6.54116 24.0295 6.28547 23.714 6.28516C23.3985 6.28516 23.1426 6.54097 23.1426 6.85659C23.1426 7.17222 23.3985 7.42803 23.714 7.42803Z" fill="#388FF3"/>
<path id="Vector_5" d="M20.8574 8.85713C20.8579 9.33031 21.2414 9.71375 21.7145 9.71425C22.1879 9.71425 22.5717 9.3305 22.5717 8.85713C22.5717 8.38375 22.1879 8 21.7145 8C21.2412 8 20.8574 8.38375 20.8574 8.85713Z" fill="#388FF3"/>
<path id="Vector_6" d="M14.0004 2.28569C17.3129 2.28569 19.0261 1.46619 19.1416 1.14281C19.0261 0.8195 17.3129 0 14.0004 0C10.6578 0 8.94407 0.834312 8.85645 1.1515C8.94407 1.45144 10.6578 2.28569 14.0004 2.28569Z" fill="#388FF3"/>
<path id="Vector_7" d="M7.71484 10.8577C7.71484 11.4889 8.22653 12.0006 8.85772 12.0006C9.48891 12.0006 10.0006 11.4889 10.0006 10.8577C10.0006 10.2265 9.48891 9.71484 8.85772 9.71484C8.22684 9.71559 7.71559 10.2268 7.71484 10.8577Z" fill="#388FF3"/>
<path id="Vector_8" d="M12.4694 26.9472C13.4612 27.2913 14.5401 27.2911 15.5319 26.9466C25.8968 23.3083 27.4665 11.9441 27.6825 9.56189C26.6582 9.23614 25.6821 8.77458 24.7804 8.18945C24.4794 8.43527 24.103 8.57027 23.7144 8.57189C23.7044 8.57189 23.6951 8.56908 23.6852 8.56895C23.702 8.66433 23.7117 8.76083 23.7144 8.85764C23.713 9.96164 22.8184 10.8563 21.7144 10.8576C21.6175 10.855 21.5211 10.8453 21.4257 10.8285C21.4259 10.8385 21.4287 10.8476 21.4287 10.8576C21.4274 12.1195 20.4048 13.142 19.143 13.1433C18.9428 13.1406 18.7439 13.1112 18.5515 13.056C18.4778 14.1083 17.7639 15.0068 16.7555 15.3166C15.747 15.6263 14.6519 15.2835 14.0002 14.4539C13.3484 15.2835 12.2533 15.6263 11.2449 15.3166C10.2364 15.0068 9.52255 14.1083 9.44886 13.056C9.25642 13.1112 9.05748 13.1406 8.85736 13.1433C7.59555 13.142 6.57299 12.1194 6.57167 10.8576C6.57167 10.8476 6.57448 10.8385 6.57461 10.8285C6.47923 10.8453 6.38273 10.855 6.28598 10.8576C5.18198 10.8563 4.2873 9.96164 4.28598 8.85764C4.28861 8.76083 4.29836 8.66433 4.31511 8.56895C4.30523 8.56914 4.29598 8.57189 4.28598 8.57189C3.89736 8.5702 3.52105 8.4352 3.21998 8.18945C2.31842 8.77452 1.34255 9.23608 0.318359 9.56183C0.536922 11.945 2.11836 23.3135 12.4694 26.9472Z" fill="#388FF3"/>
<path id="Vector_9" d="M18.356 30.7034C18.44 31.0068 18.2629 31.3211 17.9598 31.4063C17.6567 31.4914 17.3418 31.3154 17.2555 31.0126C16.9264 29.836 16.9662 28.5868 17.3695 27.4336C16.8997 27.6452 16.418 27.847 15.909 28.0257C14.6729 28.4548 13.3283 28.455 12.0921 28.0263C11.5827 27.8475 11.1006 27.6455 10.6305 27.4337C11.0338 28.587 11.0735 29.8361 10.7445 31.0127C10.6898 31.2099 10.5338 31.3628 10.3356 31.4137C10.1373 31.4645 9.92703 31.4054 9.78422 31.2588C9.64141 31.1122 9.58797 30.9003 9.64397 30.7035C9.71641 30.4447 9.76678 30.1803 9.79441 29.913C7.06541 30.1773 5.88078 30.6242 5.51953 30.8609C6.16403 31.2998 9.02559 32.0009 14 32.0009C18.9743 32.0009 21.8359 31.2998 22.4805 30.8608C22.1192 30.6241 20.9343 30.177 18.2045 29.9128C18.2327 30.1801 18.2834 30.4446 18.356 30.7034Z" fill="#388FF3"/>
<path id="Vector_10" d="M6.28584 9.71425C6.75921 9.71425 7.14296 9.3305 7.14296 8.85712C7.14296 8.38375 6.75921 8 6.28584 8C5.81265 8.0005 5.42921 8.384 5.42871 8.85712C5.42871 9.33044 5.81246 9.71425 6.28584 9.71425Z" fill="#388FF3"/>
<path id="Vector_11" d="M10.5713 12.8563C10.5713 13.6453 11.2109 14.2849 11.9999 14.2849C12.7888 14.2849 13.4284 13.6453 13.4284 12.8563C13.4284 12.0673 12.7889 11.4277 11.9999 11.4277C11.2112 11.4285 10.5722 12.0677 10.5713 12.8563Z" fill="#388FF3"/>
<path id="Vector_12" d="M4.28628 7.42803C4.60184 7.42803 4.85772 7.17222 4.85772 6.85659C4.85772 6.54097 4.60191 6.28516 4.28628 6.28516C3.97084 6.28547 3.71516 6.54116 3.71484 6.85659C3.71484 7.17222 3.97072 7.42803 4.28628 7.42803Z" fill="#388FF3"/>
</g>
</g>
</g>
</svg>
