<svg width="32" height="24" viewBox="0 0 32 24" fill="none" xmlns="http://www.w3.org/2000/svg">
<g id="_x31_8_Motorcycle">
<g id="Group">
<path id="Vector" d="M18.6769 5.499C18.7969 5.35231 18.9302 5.22238 19.0735 5.10569C16.2656 4.53344 14.6212 5.71875 12.9902 7.589C15.9983 7.90819 16.6992 7.86975 18.6769 5.499Z" fill="#388FF3"/>
<path id="Vector_2" d="M26.6399 12.9419C25.8292 12.9419 25.063 13.1282 24.3736 13.4521L23.3901 11.8918C25.2464 10.9319 26.6736 11.3389 28.4267 11.2419C29.0567 11.2419 29.61 10.8886 29.8766 10.3186C30.1433 9.74863 30.0566 9.09531 29.6533 8.61531L24.0466 1.92863C23.5366 1.32194 22.71 1.14531 22.0199 1.45194H22.0166L19.8 0.405251C19.47 0.248626 19.07 0.391938 18.9134 0.72525C18.7567 1.05856 18.9001 1.45525 19.2333 1.61194L21.0733 2.48194C20.8676 3.01656 20.9749 3.70863 21.41 4.19856L23.1767 6.20525C23.2867 6.32856 23.2834 6.51525 23.17 6.63519C23.0633 6.7485 22.8934 6.76856 22.7633 6.68188L21.78 6.03856C21.11 5.59856 20.2167 5.73194 19.7 6.35188C17.27 9.26519 16.04 9.27519 12.5267 8.87519C11.1866 8.7185 10.1034 8.24519 9.30675 7.46519C7.98675 6.17188 6.40344 5.3685 4.73012 5.14525L2.2235 4.81194C1.26706 4.68025 0.406812 5.42925 0.406812 6.40194C0.406812 6.98525 0.723437 7.522 1.2335 7.80525C2.53687 8.52856 6.92681 10.9686 8.58019 12.0253C8.97169 12.2751 9.30044 12.5604 9.58619 12.866L8.5245 13.9873C7.636 13.3333 6.54275 12.9419 5.35681 12.9419C2.40337 12.9419 0 15.3453 0 18.3019C0 21.2553 2.40337 23.6586 5.35669 23.6586C8.31331 23.6586 10.7167 21.2553 10.7167 18.3019C10.7167 17.0112 10.2583 15.8261 9.49612 14.9001L10.379 13.9677C11.2306 15.5585 11.2234 17.4125 11.0933 18.5987C10.9599 19.7851 11.8955 20.8154 13.08 20.8154H17.43C18.32 20.8154 19.1134 20.2154 19.3566 19.3587L20.4533 15.4754C20.7732 14.3413 21.4257 13.3659 22.2829 12.6364L23.2436 14.1605C22.0477 15.1441 21.2833 16.6349 21.2833 18.302C21.2833 21.2553 23.6866 23.6587 26.6399 23.6587C29.5966 23.6587 31.9999 21.2553 31.9999 18.302C32 15.3453 29.5966 12.9419 26.6399 12.9419ZM8.0495 18.3007C8.0495 19.7848 6.84219 20.9921 5.35806 20.9921C3.87369 20.9921 2.66631 19.7848 2.66631 18.3007C2.66631 16.8166 3.87362 15.6093 5.35806 15.6093C5.83256 15.6093 6.27806 15.7338 6.66562 15.9502L5.68425 16.9866C5.57925 16.9604 5.47106 16.9426 5.35812 16.9426C4.60906 16.9426 3.99969 17.5518 3.99969 18.3006C3.99969 19.0496 4.60906 19.6587 5.35812 19.6587C6.10681 19.6587 6.71619 19.0495 6.71619 18.3006C6.71619 18.1622 6.68925 18.0311 6.65056 17.9052L7.63262 16.8681C7.89519 17.2836 8.0495 17.7739 8.0495 18.3007ZM26.6416 20.9921C25.1575 20.9921 23.9501 19.7848 23.9501 18.3007C23.9501 17.5854 24.2324 16.9363 24.6891 16.4537L25.4506 17.6618C25.3474 17.8531 25.2834 18.0685 25.2834 18.3007C25.2834 19.0495 25.8928 19.6588 26.6415 19.6588C27.3902 19.6588 27.9996 19.0496 27.9996 18.3007C27.9996 17.5518 27.3902 16.9426 26.6415 16.9426C26.6197 16.9426 26.5993 16.9481 26.5777 16.9491L25.8157 15.7401C26.0761 15.6559 26.3534 15.6093 26.6415 15.6093C28.1256 15.6093 29.3329 16.8166 29.3329 18.3007C29.333 19.7848 28.1256 20.9921 26.6416 20.9921Z" fill="#388FF3"/>
</g>
</g>
</svg>
