<svg width="32" height="32" viewBox="0 0 32 32" fill="none" xmlns="http://www.w3.org/2000/svg">
<g id="Component 1" clip-path="url(#clip0_6258_1145)">
<path id="Vector" d="M2.113 19.9438C1.32749 19.9442 0.571554 19.6443 0 19.1055L0 21.9196C0 22.2535 0.132625 22.5736 0.368698 22.8097C0.604771 23.0458 0.924955 23.1784 1.25881 23.1784H17.1784V19.9438H2.113Z" fill="#388FF3"/>
<path id="Vector_2" d="M17.1786 24.1562H12.445V26.3043C12.445 26.9881 12.445 28.5894 9.09596 28.5894H8.08346C8.01877 28.5886 7.95458 28.6008 7.89461 28.625C7.83464 28.6492 7.78007 28.6852 7.73407 28.7306C7.68807 28.7761 7.65155 28.8303 7.62663 28.89C7.6017 28.9497 7.58887 29.0137 7.58887 29.0784C7.58887 29.1431 7.6017 29.2071 7.62663 29.2668C7.65155 29.3265 7.68807 29.3807 7.73407 29.4262C7.78007 29.4717 7.83464 29.5076 7.89461 29.5318C7.95458 29.5561 8.01877 29.5682 8.08346 29.5674H17.222C17.1933 29.401 17.1789 29.2325 17.1786 29.0636V24.1562Z" fill="#388FF3"/>
<path id="Vector_3" d="M20.1657 4.36934H30.0125C30.456 4.36889 30.8939 4.46779 31.2942 4.65878L31.2977 2.21003C31.298 2.04455 31.2656 1.88063 31.2024 1.72767C31.1393 1.57471 31.0466 1.4357 30.9297 1.3186C30.8127 1.20149 30.6739 1.10859 30.521 1.04521C30.3681 0.98183 30.2043 0.94921 30.0388 0.949219H1.25991C1.09457 0.949219 0.930839 0.98179 0.778082 1.04507C0.625324 1.10836 0.486529 1.20111 0.369622 1.31804C0.252716 1.43497 0.159989 1.57378 0.0967357 1.72655C0.0334829 1.87933 0.000943753 2.04306 0.000976587 2.20841V16.8542C0.00096838 17.1315 0.0555924 17.4062 0.16173 17.6624C0.267867 17.9187 0.423439 18.1515 0.619563 18.3477C0.815687 18.5438 1.04852 18.6994 1.30477 18.8055C1.56102 18.9116 1.83567 18.9663 2.11304 18.9663H17.1784V7.35684C17.1792 6.5648 17.4942 5.80542 18.0543 5.24534C18.6143 4.68526 19.3737 4.37022 20.1657 4.36934Z" fill="#388FF3"/>
<path id="Vector_4" d="M30.012 5.36914H20.1652C19.6381 5.36914 19.1326 5.57854 18.7599 5.95127C18.3871 6.32399 18.1777 6.82952 18.1777 7.35664V29.0641C18.1777 29.5913 18.3871 30.0968 18.7599 30.4695C19.1326 30.8422 19.6381 31.0516 20.1652 31.0516H30.012C30.5392 31.0516 31.0447 30.8422 31.4174 30.4695C31.7901 30.0968 31.9995 29.5913 31.9995 29.0641V7.35664C31.9995 6.82952 31.7901 6.32399 31.4174 5.95127C31.0447 5.57854 30.5392 5.36914 30.012 5.36914ZM25.7083 29.8056H24.4692C24.3366 29.8056 24.2094 29.753 24.1156 29.6592C24.0218 29.5654 23.9692 29.4382 23.9692 29.3056C23.9692 29.173 24.0218 29.0459 24.1156 28.9521C24.2094 28.8583 24.3366 28.8056 24.4692 28.8056H25.7083C25.8409 28.8056 25.9681 28.8583 26.0618 28.9521C26.1556 29.0459 26.2083 29.173 26.2083 29.3056C26.2083 29.4382 26.1556 29.5654 26.0618 29.6592C25.9681 29.753 25.8409 29.8056 25.7083 29.8056ZM27.6405 7.83827H22.537C22.4044 7.83827 22.2773 7.78559 22.1835 7.69182C22.0897 7.59805 22.037 7.47087 22.037 7.33827C22.037 7.20566 22.0897 7.07848 22.1835 6.98471C22.2773 6.89094 22.4044 6.83827 22.537 6.83827H27.6407C27.7733 6.83827 27.9005 6.89094 27.9942 6.98471C28.088 7.07848 28.1407 7.20566 28.1407 7.33827C28.1407 7.47087 28.088 7.59805 27.9942 7.69182C27.9005 7.78559 27.7733 7.83827 27.6407 7.83827H27.6405Z" fill="#388FF3"/>
</g>
<defs>
<clipPath id="clip0_6258_1145">
<rect width="32" height="32" fill="white"/>
</clipPath>
</defs>
</svg>
