<svg width="18" height="18" viewBox="0 0 18 18" fill="none" xmlns="http://www.w3.org/2000/svg">
<path d="M16.2195 14.6425C16.2195 14.6425 15.2539 15.5908 15.0173 15.8688C14.6318 16.2802 14.1777 16.4744 13.5823 16.4744C13.5251 16.4744 13.464 16.4744 13.4068 16.4706C12.2733 16.3982 11.22 15.9564 10.43 15.5794C8.26986 14.5358 6.37311 13.0543 4.79693 11.1766C3.49553 9.61128 2.62539 8.16401 2.04911 6.61009C1.69418 5.66175 1.56442 4.92288 1.62167 4.2259C1.65983 3.78029 1.83157 3.41085 2.14833 3.09474L3.44973 1.796C3.63674 1.6208 3.83519 1.52559 4.02983 1.52559C4.27026 1.52559 4.4649 1.67032 4.58702 1.79219C4.59084 1.796 4.59466 1.79981 4.59847 1.80362C4.83127 2.02071 5.05263 2.24542 5.28543 2.48536C5.40374 2.60724 5.52586 2.72911 5.64799 2.8548L6.68987 3.89455C7.09441 4.29826 7.09441 4.67151 6.68987 5.07522C6.57919 5.18567 6.47233 5.29612 6.36166 5.40276C6.04108 5.7303 6.29291 5.47898 5.96088 5.77605C5.95325 5.78367 5.94562 5.78748 5.9418 5.7951C5.61359 6.12264 5.67465 6.44256 5.74335 6.65965C5.74716 6.67108 5.75098 6.68251 5.7548 6.69393C6.02576 7.34901 6.4074 7.96601 6.9875 8.70107L6.99131 8.70488C8.04464 9.99981 9.15522 11.0091 10.3803 11.7822C10.5368 11.8813 10.6971 11.9612 10.8497 12.0374C10.9871 12.106 11.1169 12.1707 11.2275 12.2393C11.2428 12.2469 11.2581 12.2583 11.2733 12.2659C11.4031 12.3307 11.5252 12.3612 11.6512 12.3612C11.9679 12.3612 12.1664 12.1631 12.2313 12.0984L12.9793 11.3518C13.1091 11.2223 13.3152 11.0662 13.5556 11.0662C13.7922 11.0662 13.9869 11.2147 14.1052 11.3442C14.109 11.348 14.109 11.348 14.1128 11.3518L16.2156 13.4504C16.6087 13.8388 16.2195 14.6425 16.2195 14.6425Z" stroke="#070707" stroke-width="1.5" stroke-linecap="round" stroke-linejoin="round"/>
</svg>
