<svg width="30" height="32" viewBox="0 0 30 32" fill="none" xmlns="http://www.w3.org/2000/svg">
<g id="Layer_x0020_1">
<path id="Vector" fill-rule="evenodd" clip-rule="evenodd" d="M27.5577 23.4781H5.93639C5.81583 23.4781 5.70276 23.42 5.63226 23.3225L0.941182 16.8187C0.0550534 15.5902 0.964057 13.8867 2.43894 13.8867C3.03482 13.8867 3.59694 14.1732 3.94307 14.653L7.63833 19.7759H27.5575C28.578 19.7759 29.4081 20.6062 29.4081 21.6267C29.4081 22.6473 28.5784 23.4783 27.5578 23.4783L27.5577 23.4781Z" fill="#388FF3"/>
<path id="Vector_2" fill-rule="evenodd" clip-rule="evenodd" d="M26.1803 25.5202H7.48633C7.27933 25.5202 7.11133 25.352 7.11133 25.1452V23.1035C7.11133 22.8965 7.27933 22.7285 7.48633 22.7285H26.1803C26.3873 22.7285 26.5553 22.8967 26.5553 23.1035V25.1452C26.5553 25.352 26.3873 25.5202 26.1803 25.5202Z" fill="#388FF3"/>
<path id="Vector_3" fill-rule="evenodd" clip-rule="evenodd" d="M8.74677 31.9985C7.8434 31.9985 7.35346 31.1036 7.7549 29.7232L9.11765 25.0387C9.25303 24.5731 9.95034 24.7672 9.84422 25.2232H11.1303L11.1839 25.0389C11.3217 24.5647 12.0421 24.7745 11.9041 25.2485L11.5715 26.3917H22.0935C21.881 25.6612 21.5077 24.9318 22.016 24.7837C22.3755 24.6789 22.4726 25.0104 22.5309 25.2108H23.8173C23.7271 24.7636 24.4125 24.5772 24.5465 25.0387L25.9093 29.7232C26.7251 32.5278 23.9019 32.6109 23.3343 30.6592L22.776 28.7407H10.8878L10.3298 30.6592C10.1133 31.4028 9.46584 31.9987 8.74659 31.9987L8.74677 31.9985Z" fill="#388FF3"/>
<path id="Vector_4" fill-rule="evenodd" clip-rule="evenodd" d="M7.38649 12.8701C6.96573 12.8701 6.9678 12.3181 6.85905 11.7761C6.5793 10.3822 6.60461 9.02806 6.88136 7.76431C9.17637 7.10524 10.7281 7.32424 11.5574 7.34974C11.6083 9.22044 11.8931 10.4699 12.2504 12.278C11.5156 12.1576 10.0786 11.8432 7.6098 12.8124L7.38649 12.8701ZM7.1043 6.92955C8.04555 3.95748 10.4077 1.58916 13.4294 0.558654C12.2821 1.62778 11.6092 3.8326 11.5544 6.50374C10.1838 6.29599 8.32043 6.62374 7.1043 6.92974V6.92955ZM16.0801 0.025964C19.3428 -0.201474 22.358 1.07672 24.3519 3.41204C23.0569 3.59992 21.2042 4.01392 20.061 4.70504C19.2815 2.91629 17.7039 0.630279 16.0803 0.0257765L16.0801 0.025964ZM24.8852 4.09717C25.6547 5.18373 26.2101 6.44636 26.4889 7.83518C26.616 8.46781 26.8847 9.06612 26.196 9.08075C23.418 9.14019 22.2667 10.0558 21.653 10.4263C21.3009 8.67125 20.9419 7.01205 20.3743 5.4843C21.1316 5.15298 22.5604 4.35854 24.8852 4.09735V4.09717ZM20.9085 10.5279C18.1603 10.1443 15.3658 10.7092 12.9877 12.1408C12.6232 10.2965 12.3388 9.06444 12.3121 7.14237C12.9076 6.69536 15.5118 4.97673 19.6149 5.59042C20.1999 7.11162 20.5567 8.77494 20.9085 10.5279ZM12.3238 6.21949C12.4432 3.24629 13.3522 0.931967 14.7975 0.642091C16.5978 0.28059 18.4603 3.00591 19.2783 4.78942C15.7886 4.38704 13.3974 5.53642 12.3238 6.21949Z" fill="#388FF3"/>
<path id="Vector_5" fill-rule="evenodd" clip-rule="evenodd" d="M19.772 20.5259C19.2778 20.5259 18.5008 20.5259 17.7322 20.5259C17.5573 20.5259 17.4009 20.4027 17.3651 20.2245L15.4364 10.6174C15.3789 10.3305 18.0995 9.91087 18.1327 10.0766L20.1403 20.077C20.1868 20.3085 20.0079 20.5259 19.772 20.5259Z" fill="#388FF3"/>
</g>
</svg>
